<svg width="60" height="60" viewBox="0 0 60 60" fill="none" xmlns="http://www.w3.org/2000/svg">
<path d="M56.3877 0.0182903L50.7622 4.22913L45.1048 17.4195H40.5554L38.769 13.5485H39.9362C42.071 13.5485 43.8072 11.8308 43.8072 9.69591V5.80637H45.7427V0H39.9362V5.80637H41.8717V9.69591C41.8717 10.7624 41.0037 11.6129 39.9362 11.6129H37.8759L35.4022 6.26139L38.3654 4.78455L28.6628 0.628984L26.3818 8.6119C26.3198 3.86231 22.4421 0.0174774 17.6779 0.0174774C12.875 0.0174774 8.9682 3.92429 8.9682 8.72713C8.9682 11.6294 10.4381 14.3516 12.8392 15.961V17.4193H10.4954L10.3444 18.2129C9.87418 20.6526 9.83049 23.16 10.2148 25.6607L3.61279 37.4285L10.9037 39.094V51.2903H20.5811V60H43.807V46.5145C50.5811 41.7223 54.4501 34.0172 54.4445 25.7971L54.4465 22.2668C54.4465 20.9361 54.3235 19.5688 54.0758 18.2216L53.9325 17.4193H52.0328L56.3877 6.98609V0.0182903ZM41.8715 3.88934V1.95381H43.807V3.88934H41.8715ZM38.4236 17.4193H34.7529L32.9936 13.5483H36.6372L38.4236 17.4193ZM29.919 3.2758L33.7658 4.92396L32.858 5.36902L35.7438 11.6129H32.1138L29.7554 6.43657L28.8892 6.87391L29.919 3.2758ZM32.6267 17.4195H28.3232V15.5025C28.3232 14.4351 29.1912 13.5487 30.2588 13.5487H30.8674V13.5485L32.6267 17.4195ZM28.8264 9.07444L30.0002 11.6574C27.9873 11.793 26.3877 13.4556 26.3877 15.5023V17.4193H22.5167V15.961C24.4532 14.6632 25.7673 12.6378 26.2105 10.382L28.8264 9.07444ZM10.9039 8.72814C10.9039 4.99367 13.9436 1.95402 17.6781 1.95402C21.4125 1.95402 24.4522 4.99367 24.4522 8.72814C24.4522 11.1321 23.1536 13.3782 21.0642 14.5888L20.5813 14.8674V17.4193H18.6458V11.4522C19.7695 11.0516 20.5813 9.98693 20.5813 8.72693C20.5813 7.12632 19.2787 5.82364 17.6781 5.82364C16.0774 5.82364 14.7748 7.12652 14.7748 8.72713C14.7748 9.98713 15.5867 11.0516 16.7103 11.4524V17.4195H14.7748V14.8674L14.2919 14.5878C12.2025 13.3771 10.9039 11.1319 10.9039 8.72814ZM17.6781 9.69591C17.1438 9.69591 16.7103 9.26121 16.7103 8.72814C16.7103 8.19386 17.1438 7.76038 17.6781 7.76038C18.2123 7.76038 18.6458 8.19386 18.6458 8.72814C18.6458 9.26243 18.2123 9.69591 17.6781 9.69591ZM52.3037 19.355C52.4441 20.3226 52.5148 21.304 52.5148 22.2581L52.5169 25.7953C52.5228 33.5479 48.6972 40.8078 42.2974 45.2139L41.8717 45.5043V58.0647H22.5169V49.355H12.8392V37.5504L6.56729 36.1191L12.2324 26.0188L12.1773 25.6733C11.8174 23.5559 11.7971 21.2903 12.1097 19.355H12.8392H22.5167H52.3037ZM49.9357 17.4193H47.2096L52.0338 6.17217L54.1792 7.24053L49.9357 17.4193ZM54.4522 5.22575L53.3818 4.69066L54.4522 3.88934V5.22575Z" fill="black"/>
<path d="M19.6137 25.1615C18.0131 25.1615 16.7104 24.1937 16.7104 22.2582H14.7749C14.7749 25.1615 16.9456 27.097 19.6137 27.097C22.2819 27.097 24.4525 25.1615 24.4525 22.2582H22.517C22.5168 24.1937 21.2143 25.1615 19.6137 25.1615Z" fill="black"/>
</svg>
