<svg width="60" height="60" viewBox="0 0 60 60" fill="none" xmlns="http://www.w3.org/2000/svg">
<path d="M36.2255 18.6011C35.6976 18.2267 34.9661 18.3506 34.5915 18.8786L34.5688 18.9106C34.1943 19.4384 34.3185 20.1699 34.8463 20.5444C35.0522 20.6904 35.2889 20.7607 35.5235 20.7607C35.8905 20.7607 36.2517 20.5889 36.4803 20.2669L36.503 20.2349C36.8775 19.7071 36.7533 18.9756 36.2255 18.6011Z" fill="#4DCEFD"/>
<path d="M33.5559 21.9221C33.1456 21.4216 32.4072 21.3488 31.9068 21.7593C30.2787 23.0948 28.4286 24.0454 26.408 24.585C25.7827 24.752 25.4111 25.3941 25.5781 26.0195C25.718 26.5435 26.1916 26.8893 26.7095 26.8893C26.8096 26.8893 26.9113 26.8764 27.0125 26.8493C29.3583 26.2229 31.5049 25.12 33.3931 23.5713C33.8936 23.1609 33.9665 22.4224 33.5559 21.9221Z" fill="#4DCEFD"/>
<path d="M56.4844 26.5395C54.5459 26.5395 52.9688 28.1166 52.9688 30.055V30.641C52.9688 35.5555 49.3904 39.6473 44.7029 40.4547C45.3151 39.5517 45.6732 38.4632 45.6732 37.2925V36.4785C45.6732 33.3636 43.1391 30.8296 40.0242 30.8296C36.9094 30.8296 34.3753 33.3636 34.3753 36.4785V37.2925C34.3753 38.4334 34.7163 39.4956 35.3003 40.3847C30.7969 39.4301 27.4069 35.4246 27.4069 30.641V30.055C27.4069 28.1166 25.8298 26.5395 23.8912 26.5395C21.9527 26.5395 20.3756 28.1166 20.3756 30.055V30.641C20.3756 33.0196 20.8596 35.3198 21.7934 37.445H14.0336H13.8196V25.6433C13.8196 25.1202 13.4729 24.6604 12.97 24.5167C6.71344 22.7273 2.34375 16.9346 2.34375 10.4297V9.84375C2.34375 9.19758 2.86945 8.67188 3.51562 8.67188C4.1618 8.67188 4.6875 9.19758 4.6875 9.84375V10.4297C4.6875 17.2145 10.2074 22.7344 16.9922 22.7344H22.6321C29.4169 22.7344 34.9368 17.2145 34.9368 10.4297V9.84375C34.9368 9.19758 35.4625 8.67188 36.1086 8.67188C36.7548 8.67188 37.2805 9.19758 37.2805 9.84375V10.4297C37.2805 12.231 36.956 13.9905 36.3159 15.6592C36.0841 16.2634 36.3861 16.9412 36.9905 17.173C37.5945 17.4049 38.2725 17.1027 38.5043 16.4985C39.2475 14.5609 39.6243 12.519 39.6243 10.4297V9.84375C39.6243 7.90523 38.0471 6.32812 36.1086 6.32812C34.1701 6.32812 32.593 7.90523 32.593 9.84375V10.4297C32.593 15.3441 29.0147 19.4359 24.3273 20.2433C24.9395 19.3404 25.2975 18.252 25.2975 17.0814V16.2674C25.2975 13.1525 22.7633 10.6184 19.6485 10.6184C16.5336 10.6184 13.9996 13.1525 13.9996 16.2674V17.0814C13.9996 18.2222 14.3406 19.2844 14.9245 20.1734C10.4211 19.2188 7.03125 15.2133 7.03125 10.4297V9.84375C7.03125 7.90523 5.45414 6.32812 3.51562 6.32812C1.57711 6.32812 0 7.90523 0 9.84375V10.4297C0 14.1921 1.20961 17.7595 3.49793 20.7461C5.53043 23.3986 8.33883 25.4189 11.4759 26.5021V38.6168C11.4759 39.2639 12.0006 39.7887 12.6478 39.7887H12.8618V58.8281C12.8618 59.4752 13.3864 60 14.0337 60C14.6809 60 15.2055 59.4752 15.2055 58.8281V39.7887H23.0524C23.3086 40.187 23.5822 40.5769 23.8737 40.9573C23.9513 41.0585 24.032 41.157 24.1118 41.2563V58.8281C24.1118 59.4752 24.6364 60 25.2837 60C25.9309 60 26.4555 59.4752 26.4555 58.8281V43.6512C28.0522 44.9893 29.8875 46.035 31.8517 46.7133V58.8281C31.8517 59.4752 32.3763 60 33.0236 60C33.6708 60 34.1954 59.4752 34.1954 58.8281V45.8545C34.1954 45.3314 33.8488 44.8716 33.3458 44.7279C27.0892 42.9386 22.7195 37.146 22.7195 30.641V30.055C22.7195 29.4088 23.2452 28.8832 23.8914 28.8832C24.5375 28.8832 25.0632 29.4088 25.0632 30.055V30.641C25.0632 37.4258 30.5831 42.9457 37.3679 42.9457H43.0078C49.7926 42.9457 55.3125 37.4258 55.3125 30.641V30.055C55.3125 29.4088 55.8382 28.8832 56.4844 28.8832C57.1305 28.8832 57.6562 29.4088 57.6562 30.055V30.641C57.6562 37.2661 53.1853 43.0869 46.7838 44.7962C46.271 44.9331 45.9143 45.3976 45.9143 45.9284V54.414C45.9143 55.0611 46.4389 55.5859 47.0862 55.5859C47.7334 55.5859 48.258 55.0611 48.258 54.414V46.8035C55.2159 44.5431 60 38.0225 60 30.641V30.055C60 28.1166 58.4229 26.5395 56.4844 26.5395ZM16.3433 16.2673C16.3433 14.4446 17.826 12.962 19.6485 12.962C21.471 12.962 22.9537 14.4446 22.9537 16.2673V17.0812C22.9537 18.9037 21.4711 20.3864 19.6485 20.3864C17.826 20.3864 16.3433 18.9037 16.3433 17.0812V16.2673ZM43.3295 37.2925C43.3295 39.115 41.8468 40.5976 40.0242 40.5976C38.2017 40.5976 36.7191 39.115 36.7191 37.2925V36.4785C36.7191 34.656 38.2017 33.1733 40.0242 33.1733C41.8467 33.1733 43.3295 34.656 43.3295 36.4785V37.2925Z" fill="#4DCEFD"/>
<path d="M47.9145 57.9996C47.6965 57.7815 47.3941 57.6562 47.0859 57.6562C46.7777 57.6562 46.4754 57.7815 46.2574 57.9996C46.0395 58.2176 45.9141 58.5199 45.9141 58.8281C45.9141 59.1363 46.0395 59.4387 46.2574 59.6565C46.4754 59.8745 46.7777 60 47.0859 60C47.3941 60 47.6965 59.8746 47.9145 59.6565C48.1324 59.4387 48.2578 59.1363 48.2578 58.8281C48.2578 58.5199 48.1324 58.2176 47.9145 57.9996Z" fill="#4DCEFD"/>
<path d="M19.6484 43.8281C19.0012 43.8281 18.4766 44.3529 18.4766 45V58.8281C18.4766 59.4752 19.0012 60 19.6484 60C20.2957 60 20.8203 59.4752 20.8203 58.8281V45C20.8203 44.3529 20.2957 43.8281 19.6484 43.8281Z" fill="#4DCEFD"/>
<path d="M54.6094 9.60938C53.9621 9.60938 53.4375 10.1341 53.4375 10.7812V12.2379C53.4375 12.885 53.9621 13.4098 54.6094 13.4098C55.2566 13.4098 55.7812 12.885 55.7812 12.2379V10.7812C55.7812 10.1341 55.2566 9.60938 54.6094 9.60938Z" fill="#4DCEFD"/>
<path d="M54.6094 16.5902C53.9621 16.5902 53.4375 17.115 53.4375 17.7621V19.2187C53.4375 19.8658 53.9621 20.3906 54.6094 20.3906C55.2566 20.3906 55.7812 19.8658 55.7812 19.2187V17.7621C55.7812 17.115 55.2566 16.5902 54.6094 16.5902Z" fill="#4DCEFD"/>
<path d="M58.8282 13.8281H57.3716C56.7244 13.8281 56.1997 14.3529 56.1997 15C56.1997 15.6471 56.7244 16.1719 57.3716 16.1719H58.8282C59.4755 16.1719 60.0001 15.6471 60.0001 15C60.0001 14.3529 59.4755 13.8281 58.8282 13.8281Z" fill="#4DCEFD"/>
<path d="M51.8473 13.8281H50.3906C49.7434 13.8281 49.2188 14.3529 49.2188 15C49.2188 15.6471 49.7434 16.1719 50.3906 16.1719H51.8473C52.4945 16.1719 53.0191 15.6471 53.0191 15C53.0191 14.3529 52.4945 13.8281 51.8473 13.8281Z" fill="#4DCEFD"/>
<path d="M25.7661 0C25.1189 0 24.5942 0.524766 24.5942 1.17188V2.62852C24.5942 3.27562 25.1189 3.80039 25.7661 3.80039C26.4133 3.80039 26.938 3.27562 26.938 2.62852V1.17188C26.938 0.524766 26.4133 0 25.7661 0Z" fill="#4DCEFD"/>
<path d="M25.7661 6.98083C25.1189 6.98083 24.5942 7.5056 24.5942 8.15271V9.60935C24.5942 10.2565 25.1189 10.7812 25.7661 10.7812C26.4133 10.7812 26.938 10.2565 26.938 9.60935V8.15271C26.938 7.5056 26.4133 6.98083 25.7661 6.98083Z" fill="#4DCEFD"/>
<path d="M29.9855 4.21875H28.5288C27.8816 4.21875 27.3569 4.74352 27.3569 5.39062C27.3569 6.03773 27.8816 6.5625 28.5288 6.5625H29.9855C30.6327 6.5625 31.1573 6.03773 31.1573 5.39062C31.1573 4.74352 30.6327 4.21875 29.9855 4.21875Z" fill="#4DCEFD"/>
<path d="M23.004 4.21875H21.5474C20.9001 4.21875 20.3755 4.74352 20.3755 5.39062C20.3755 6.03773 20.9001 6.5625 21.5474 6.5625H23.004C23.6512 6.5625 24.1759 6.03773 24.1759 5.39062C24.1759 4.74352 23.6512 4.21875 23.004 4.21875Z" fill="#4DCEFD"/>
</svg>
