<svg width="60" height="61" viewBox="0 0 60 61" fill="none" xmlns="http://www.w3.org/2000/svg">
<g clip-path="url(#clip0)">
<path d="M27.6862 40.7748C28.1444 40.3157 28.1444 39.5727 27.6862 39.1136C27.2276 38.6558 26.4846 38.6558 26.0254 39.1136C25.5677 39.5727 25.5677 40.3157 26.0254 40.7748C26.4846 41.2326 27.2276 41.2326 27.6862 40.7748Z" fill="#4DCEFD"/>
<path d="M22.127 12.9122C22.127 20.032 27.9194 25.8248 35.0391 25.8248C42.1589 25.8248 47.9513 20.032 47.9513 12.9122C47.9513 5.79241 42.1589 0 35.0391 0C27.9194 0 22.127 5.79241 22.127 12.9122ZM45.6039 12.9122C45.6039 18.7376 40.8646 23.4769 35.0391 23.4769C29.2137 23.4769 24.4744 18.7376 24.4744 12.9122C24.4744 7.08721 29.2137 2.34788 35.0391 2.34788C40.8646 2.34788 45.6039 7.08721 45.6039 12.9122Z" fill="#4DCEFD"/>
<path d="M13.5793 59.7702C14.0343 60.2289 14.775 60.2339 15.236 59.7799L20.927 54.1732C21.8939 53.2064 22.1879 51.7749 21.7627 50.5305L22.9869 49.3499C23.646 48.7133 24.5137 48.3624 25.4311 48.3624H41.036C43.8045 48.3624 46.4212 47.2993 48.4049 45.3688C48.4865 45.2894 47.7852 46.1155 59.0508 32.6511C60.7217 30.6742 60.4717 27.7058 58.4931 26.0331C56.5268 24.3759 53.5813 24.614 51.9058 26.5569L44.9791 33.6762C44.1045 32.5997 42.7707 31.9287 41.3296 31.9287H28.2399C26.3773 31.1494 24.4009 30.755 22.3617 30.755C16.7092 30.755 11.7736 33.3657 9.1248 38.2605C8.00888 38.049 6.83196 38.3866 5.98528 39.2333L0.401099 44.834C-0.0548091 45.2913 -0.0557263 46.0311 0.399264 46.4897L13.5793 59.7702ZM22.3613 33.1024C24.1592 33.1024 25.8975 33.4643 27.529 34.1779C27.6776 34.2431 27.8377 34.2766 27.9996 34.2766H41.3296C42.6024 34.2766 43.6775 35.3145 43.6775 36.624C43.6775 37.9188 42.6244 38.9719 41.3296 38.9719H31.7523C31.1042 38.9719 30.5786 39.4975 30.5786 40.1456C30.5786 40.7941 31.1042 41.3193 31.7523 41.3193H41.3296C43.9187 41.3193 46.0249 39.2131 46.0249 36.624C46.0249 36.4176 46.0102 36.213 45.9836 36.0103C52.6842 29.1226 53.629 28.1548 53.6694 28.1067C54.5059 27.1192 55.9911 26.994 56.979 27.8269C57.9679 28.663 58.0931 30.1472 57.2542 31.1402L46.7257 43.7268C45.1883 45.2027 43.1697 46.015 41.036 46.015H25.4311C23.9019 46.015 22.4544 46.5998 21.3563 47.6607L20.3587 48.6234L11.1626 39.4278C13.3119 35.3957 17.3449 33.1024 22.3613 33.1024ZM7.64654 40.8923C8.03365 40.5052 8.62807 40.4354 9.10003 40.7271C9.30322 40.851 8.7198 40.3199 19.2671 50.8525C19.7363 51.3217 19.7111 52.0693 19.2736 52.5069L14.4219 57.2866L2.88795 45.6646L7.64654 40.8923Z" fill="#4DCEFD"/>
<path d="M33.6309 5.86948V7.245C32.2646 7.72935 31.283 9.03423 31.283 10.5648C31.283 12.5063 32.8627 14.0864 34.8046 14.0864C35.4518 14.0864 35.9783 14.6129 35.9783 15.2601C35.9783 15.9072 35.4518 16.4338 34.8046 16.4338C34.3033 16.4338 33.7616 16.1187 33.2805 15.5458C32.8631 15.0496 32.1228 14.9858 31.6266 15.4027C31.1303 15.8201 31.0661 16.5604 31.4835 17.0566C32.1109 17.8029 32.8489 18.323 33.6309 18.5854V19.9554C33.6309 20.6039 34.1565 21.1291 34.8046 21.1291C35.4527 21.1291 35.9783 20.6039 35.9783 19.9554V18.5799C37.3447 18.0951 38.3262 16.7902 38.3262 15.2601C38.3262 13.3181 36.7466 11.7385 34.8046 11.7385C34.1575 11.7385 33.6309 11.2119 33.6309 10.5648C33.6309 9.91761 34.1575 9.39061 34.8046 9.39061C35.2206 9.39061 35.6596 9.60297 36.0742 10.0043C36.5402 10.4552 37.2832 10.4428 37.7341 9.97724C38.185 9.51124 38.1726 8.76821 37.707 8.31735C37.1112 7.74081 36.515 7.41471 35.9783 7.23675V5.86948C35.9783 5.22094 35.4527 4.69531 34.8046 4.69531C34.1565 4.69531 33.6309 5.22094 33.6309 5.86948Z" fill="#4DCEFD"/>
</g>
<defs>
<clipPath id="clip0">
<rect width="60" height="60.1174" fill="white"/>
</clipPath>
</defs>
</svg>
