<svg width="60" height="60" viewBox="0 0 60 60" fill="none" xmlns="http://www.w3.org/2000/svg">
<path d="M23.6733 42.0471C23.4467 42.0471 23.2184 41.9691 23.0321 41.8105L16.6222 36.3524C16.4011 36.1639 16.2739 35.8886 16.2739 35.5979C16.2739 35.3077 16.4016 35.0324 16.6222 34.8439L23.0321 29.3858C23.4484 29.0309 24.0735 29.0812 24.4284 29.4975C24.7827 29.9143 24.733 30.5394 24.3162 30.8938L18.7924 35.5979L24.3162 40.302C24.733 40.6568 24.7827 41.282 24.4284 41.6983C24.2322 41.9288 23.9536 42.0471 23.6733 42.0471Z" fill="black"/>
<path d="M36.327 42.0471C36.0467 42.0471 35.7681 41.9288 35.5725 41.6983C35.2176 41.282 35.2679 40.6568 35.6841 40.302L41.208 35.5979L35.6841 30.8938C35.2679 30.5394 35.2176 29.9143 35.5725 29.4975C35.9268 29.0812 36.5525 29.0309 36.9682 29.3858L43.3781 34.8439C43.5993 35.0324 43.7264 35.3077 43.7264 35.5979C43.7264 35.8886 43.5993 36.1639 43.3781 36.3524L36.9682 41.8105C36.7819 41.9691 36.5536 42.0471 36.327 42.0471Z" fill="black"/>
<path d="M27.7309 46.1409C27.6629 46.1409 27.5944 46.1337 27.5253 46.1193C26.9902 46.0065 26.6475 45.4809 26.7602 44.9458L30.7551 25.9785C30.8679 25.4434 31.393 25.1007 31.9287 25.2135C32.4637 25.3262 32.8065 25.8514 32.6937 26.387L28.6988 45.3543C28.6004 45.8208 28.1892 46.1409 27.7309 46.1409Z" fill="black"/>
<path d="M53.3491 56.4744H6.65094C2.98386 56.4744 0 53.4911 0 49.8235V10.1887C0 6.52158 2.98386 3.53772 6.65094 3.53772H53.3491C57.0161 3.53772 60 6.52158 60 10.1887V49.8235C60 53.4911 57.0161 56.4744 53.3491 56.4744ZM6.65094 5.51885C4.07613 5.51885 1.98113 7.61385 1.98113 10.1887V49.8235C1.98113 52.3983 4.07613 54.4933 6.65094 54.4933H53.3491C55.9239 54.4933 58.0189 52.3983 58.0189 49.8235V10.1887C58.0189 7.61385 55.9239 5.51885 53.3491 5.51885H6.65094Z" fill="black"/>
<path d="M59.0094 19.3995H0.990566C0.443322 19.3995 0 18.9561 0 18.4089C0 17.8622 0.443322 17.4183 0.990566 17.4183H59.0094C59.5567 17.4183 60 17.8622 60 18.4089C60 18.9561 59.5567 19.3995 59.0094 19.3995Z" fill="black"/>
<path d="M16.9248 14.6595C15.1968 14.6595 13.79 13.2527 13.79 11.5248C13.79 9.79626 15.1968 8.39001 16.9248 8.39001C18.6533 8.39001 20.0596 9.79626 20.0596 11.5248C20.0596 13.2527 18.6533 14.6595 16.9248 14.6595ZM16.9248 10.3711C16.2891 10.3711 15.7712 10.8885 15.7712 11.5248C15.7712 12.161 16.2891 12.6784 16.9248 12.6784C17.561 12.6784 18.0784 12.161 18.0784 11.5248C18.0784 10.8885 17.561 10.3711 16.9248 10.3711Z" fill="black"/>
<path d="M7.29297 14.629C5.56445 14.629 4.1582 13.2228 4.1582 11.4943C4.1582 9.76575 5.56445 8.3595 7.29297 8.3595C9.02148 8.3595 10.4277 9.76575 10.4277 11.4943C10.4277 13.2228 9.02148 14.629 7.29297 14.629ZM7.29297 10.3406C6.65728 10.3406 6.13933 10.8586 6.13933 11.4943C6.13933 12.1305 6.65728 12.6479 7.29297 12.6479C7.92921 12.6479 8.4466 12.1305 8.4466 11.4943C8.4466 10.8586 7.92921 10.3406 7.29297 10.3406Z" fill="black"/>
<path d="M26.5566 14.6894C24.8286 14.6894 23.4224 13.2831 23.4224 11.5546C23.4224 9.82666 24.8286 8.42041 26.5566 8.42041C28.2851 8.42041 29.6913 9.82666 29.6913 11.5546C29.6913 13.2831 28.2851 14.6894 26.5566 14.6894ZM26.5566 10.401C25.9209 10.401 25.4035 10.9184 25.4035 11.5546C25.4035 12.1909 25.9209 12.7083 26.5566 12.7083C27.1928 12.7083 27.7102 12.1909 27.7102 11.5546C27.7102 10.9184 27.1928 10.401 26.5566 10.401Z" fill="black"/>
</svg>
