<svg width="60" height="60" viewBox="0 0 60 60" fill="none" xmlns="http://www.w3.org/2000/svg">
<g clip-path="url(#clip0)">
<path d="M53.0899 42.3426C52.7608 42.2062 52.3821 42.2816 52.1301 42.5334L42.506 52.1576C42.2541 52.4095 42.1788 52.7883 42.3152 53.1174C42.4513 53.4465 42.7727 53.661 43.1288 53.661H52.753C53.2394 53.661 53.6336 53.2668 53.6336 52.7803V43.1562C53.6335 42.8 53.4189 42.4789 53.0899 42.3426ZM45.2546 51.8998L51.8721 45.2823V51.8998H45.2546Z" fill="black"/>
<path d="M59.4565 28.2266C59.1274 28.0902 58.7487 28.1656 58.4967 28.4174L55.8592 31.055V13.1216C55.8592 12.6352 55.4648 12.2409 54.9785 12.2409H48.212L50.6682 9.78468C50.6686 9.78433 50.6689 9.78386 50.6693 9.78351L53.036 7.41679C53.5431 6.90972 53.8223 6.23518 53.8223 5.51799C53.8223 4.80081 53.5431 4.12651 53.036 3.6192L50.2992 0.882399C49.7921 0.375328 49.1176 0.0960693 48.4004 0.0960693C47.6832 0.0960693 47.0088 0.375328 46.5016 0.882399L44.1337 3.25029L41.2725 6.11155L35.1432 12.2408H7.80705V3.5285C7.80705 3.04205 7.41271 2.64783 6.92638 2.64783C3.10723 2.64807 0 5.75506 0 9.57445V46.9791C0 47.0442 0.00750002 47.1074 0.0208594 47.1684C0.1425 48.789 0.843635 50.2947 2.01539 51.4378C3.2679 52.6593 4.9213 53.3321 6.67115 53.3321H33.5819L28.5137 58.4004C28.2618 58.6523 28.1865 59.0309 28.3228 59.3601C28.459 59.6892 28.7803 59.9038 29.1364 59.9038H59.1195C59.6058 59.9038 60.0001 59.5095 60.0001 59.0231V29.0403C60.0001 28.6841 59.7854 28.3629 59.4565 28.2266ZM47.7473 2.12799C48.1073 1.76775 48.6939 1.76775 49.0539 2.12799L51.7908 4.86491C52.151 5.22502 52.151 5.81132 51.7908 6.17155L50.0457 7.91671L46.002 3.87315L47.7473 2.12799ZM44.7566 5.11862L48.8001 9.16206L47.1842 10.778L43.1409 6.73452L44.7566 5.11862ZM58.239 38.9358H56.6142C56.1278 38.9358 55.7336 39.33 55.7336 39.8165C55.7336 40.3029 56.1278 40.6972 56.6142 40.6972H58.239V43.351H56.6142C56.1278 43.351 55.7336 43.7452 55.7336 44.2317C55.7336 44.7181 56.1278 45.1123 56.6142 45.1123H58.239V47.766H56.6142C56.1278 47.766 55.7336 48.1603 55.7336 48.6467C55.7336 49.1332 56.1278 49.5274 56.6142 49.5274H58.239V52.1812H56.6142C56.1278 52.1812 55.7336 52.5755 55.7336 53.0619C55.7336 53.5483 56.1278 53.9425 56.6142 53.9425H58.239V58.1428H31.2624L40.1579 49.2474C40.5018 48.9033 40.5018 48.3459 40.1579 48.0019C40.1184 47.9624 40.076 47.9282 40.0316 47.8978C39.6887 47.6629 39.2169 47.6975 38.9123 48.0019L35.3432 51.571H6.67126C4.00032 51.571 1.85016 49.4858 1.76555 46.8196C1.77059 46.6523 1.7836 46.4864 1.80446 46.3223C1.80457 46.3214 1.80469 46.3204 1.80481 46.3195C1.81465 46.2415 1.82649 46.164 1.83996 46.0869C1.84149 46.0781 1.84313 46.0693 1.84465 46.0605C1.85696 45.9917 1.87079 45.9233 1.8859 45.8551C1.89012 45.8361 1.89457 45.8171 1.89903 45.7982C1.91239 45.7406 1.9268 45.6833 1.94227 45.6262C1.95071 45.5953 1.9595 45.5647 1.96852 45.5338C1.98141 45.4891 1.99477 45.4444 2.00895 45.4003C2.02313 45.3561 2.03825 45.3124 2.0536 45.2687C2.06426 45.2381 2.07481 45.2075 2.08629 45.1771C2.10774 45.1195 2.13047 45.0624 2.15391 45.0058C2.16059 44.9895 2.16715 44.973 2.17407 44.9567C2.20418 44.8864 2.23547 44.8169 2.26852 44.7482C2.26993 44.7453 2.27122 44.7424 2.27262 44.7394C2.96145 43.314 4.28626 42.2512 5.87614 41.9214C5.8806 41.9205 5.88505 41.9194 5.8895 41.9185C5.96239 41.9036 6.03599 41.8908 6.11005 41.879C6.12236 41.877 6.13466 41.8745 6.1472 41.8727C6.21411 41.8625 6.28173 41.8545 6.34935 41.8469C6.36833 41.8448 6.3872 41.8419 6.4063 41.84C6.47158 41.8334 6.53744 41.8291 6.60329 41.825C6.62415 41.8237 6.64501 41.8215 6.66587 41.8204C6.75212 41.8161 6.83908 41.8138 6.92638 41.8138C7.41271 41.8138 7.80705 41.4196 7.80705 40.9332V34.5477C7.80705 34.0613 7.41271 33.6671 6.92638 33.6671C6.44005 33.6671 6.04572 34.0613 6.04572 34.5477V40.1079C4.5586 40.296 3.17825 40.9593 2.08981 42.0222C1.97532 42.134 1.8668 42.2503 1.7611 42.3684V9.57445C1.7611 7.02667 3.61571 4.90358 6.0456 4.48428V13.1216V31.0252V31.0253C6.0456 31.5116 6.43994 31.906 6.92626 31.906C7.41259 31.906 7.80693 31.5116 7.80693 31.0253V31.0252V14.0023H33.382L28.5135 18.8707C28.1696 19.2148 28.1696 19.7722 28.5135 20.1162C28.8575 20.46 29.4151 20.46 29.7589 20.1162L36.1307 13.7443C36.131 13.7441 36.1311 13.7439 36.1313 13.7438L41.8952 7.97987L45.9385 12.0234L45.4642 12.4978C45.4638 12.4982 45.4633 12.4985 45.463 12.4989L27.7058 30.2563L23.6623 26.2129L27.1625 22.7127C27.5064 22.3687 27.5064 21.8112 27.1625 21.4672C26.8185 21.1234 26.261 21.1234 25.9171 21.4672L21.7941 25.5901C21.7721 25.6122 21.7515 25.6355 21.7321 25.6594C21.7257 25.6674 21.7199 25.6759 21.7138 25.6842C21.7014 25.7008 21.6892 25.7174 21.6779 25.7348C21.6714 25.7448 21.6656 25.7551 21.6595 25.7656C21.6497 25.782 21.6404 25.7986 21.6318 25.8156C21.6262 25.8266 21.6211 25.8378 21.616 25.8492C21.6081 25.8665 21.6009 25.884 21.5942 25.9016C21.5918 25.9078 21.5888 25.9137 21.5866 25.9199L19.8708 30.7803L18.7011 34.0942C18.6856 34.1383 18.6745 34.183 18.6661 34.2282H15.7374C15.251 34.2282 14.8567 34.6224 14.8567 35.1088C14.8567 35.5953 15.251 35.9895 15.7374 35.9895H40.1258C40.6122 35.9895 41.0065 35.5953 41.0065 35.1088C41.0065 34.6224 40.6122 34.2282 40.1258 34.2282H22.6281L27.9988 32.3323C28.0033 32.3307 28.0075 32.3284 28.012 32.3268C28.0328 32.3191 28.0533 32.3104 28.0736 32.3011C28.0817 32.2974 28.0898 32.2939 28.0976 32.29C28.1187 32.2794 28.1395 32.2678 28.1599 32.2554C28.1664 32.2514 28.1732 32.2478 28.1797 32.2437C28.2009 32.2301 28.2215 32.2152 28.2418 32.1995C28.2468 32.1957 28.2521 32.1923 28.257 32.1883C28.2815 32.1686 28.3055 32.1474 28.3283 32.1246L46.4506 14.0024H54.0977V32.8164L41.5005 45.4137C41.1566 45.7578 41.1566 46.3153 41.5005 46.6592C41.522 46.6806 41.5443 46.7008 41.5674 46.7197C41.7289 46.8513 41.9261 46.9171 42.1232 46.9171C42.3204 46.9171 42.5177 46.8513 42.6791 46.7197C42.7022 46.7009 42.7245 46.6806 42.746 46.6592C42.7463 46.6589 42.746 46.6592 42.7463 46.6589L58.239 31.1661V38.9358ZM26.095 31.1363L23.5724 32.0268L21.8917 30.3461L22.7822 27.8235L26.095 31.1363Z" fill="black"/>
</g>
<defs>
<clipPath id="clip0">
<rect width="60" height="60" fill="white"/>
</clipPath>
</defs>
</svg>
