<svg width="102" height="32" viewBox="0 0 102 32" fill="none" xmlns="http://www.w3.org/2000/svg">
<path d="M99.623 2.64632C99.7858 2.5649 99.908 2.48347 100.03 2.36133C100.112 2.2392 100.152 2.07635 100.152 1.87278C100.152 1.5878 100.071 1.34352 99.908 1.22138C99.7451 1.09925 99.4601 1.01782 99.0937 1.01782H98.2388V3.98983H98.7273V2.80917H99.1752L99.8673 3.98983H100.437L99.623 2.64632ZM99.0937 2.40205H98.7273V1.42495H99.0937C99.2973 1.42495 99.4601 1.46566 99.5416 1.54708C99.623 1.62851 99.7044 1.75065 99.7044 1.9135C99.7044 2.03563 99.6637 2.15777 99.5416 2.27991C99.3787 2.36133 99.2566 2.40205 99.0937 2.40205Z" fill="#303082"/>
<path d="M101.292 1.26202C101.089 0.854899 100.763 0.569911 100.356 0.366349C99.9488 0.162787 99.5417 0.0406494 99.0938 0.0406494C98.646 0.0406494 98.2389 0.162787 97.8317 0.366349C97.4246 0.569911 97.1396 0.895611 96.9361 1.30274C96.7325 1.70986 96.6104 2.11699 96.6104 2.56482C96.6104 3.01266 96.7325 3.41978 96.9361 3.7862C97.1396 4.15261 97.4653 4.47831 97.8317 4.72258C98.2389 4.96686 98.646 5.04828 99.0938 5.04828C99.5417 5.04828 99.9895 4.92615 100.356 4.72258C100.763 4.47831 101.048 4.19332 101.252 3.7862C101.455 3.41978 101.577 3.01266 101.577 2.56482C101.659 2.03556 101.537 1.62844 101.292 1.26202ZM101.007 3.58263C100.804 3.90833 100.559 4.15261 100.234 4.35617C99.9081 4.55973 99.5417 4.64116 99.1752 4.64116C98.8088 4.64116 98.4424 4.55973 98.1167 4.35617C97.791 4.15261 97.506 3.90833 97.3432 3.58263C97.1396 3.25693 97.0582 2.89052 97.0582 2.52411C97.0582 2.11699 97.1396 1.79129 97.3432 1.46559C97.5467 1.13989 97.791 0.895611 98.1167 0.692049C98.4424 0.488487 98.8088 0.407062 99.1752 0.407062C99.5824 0.407062 99.9081 0.488487 100.234 0.692049C100.559 0.895611 100.804 1.13989 101.007 1.46559C101.211 1.79129 101.292 2.1577 101.292 2.52411C101.292 2.89052 101.211 3.25693 101.007 3.58263Z" fill="#303082"/>
<path d="M15.0229 29.9643C13.5165 31.1856 11.4809 31.7963 8.91603 31.7963C6.31043 31.7963 4.19338 31.1449 2.6056 29.8421C0.854962 28.4579 0 26.5037 0 23.9795V23.1653H6.26972C6.26972 24.0609 6.47328 24.8345 6.88041 25.4452C7.32824 26.178 7.97964 26.5037 8.83461 26.5037C10.4224 26.5037 11.2366 25.7302 11.2366 24.1424C11.2366 23.4095 10.9517 22.8396 10.4224 22.3917C10.2188 22.2289 9.93384 22.0253 9.56743 21.8625L9.07888 21.6182L6.39186 20.4783C5.49618 20.1118 4.72265 19.7454 4.11196 19.3383C3.33842 18.8905 2.72774 18.4019 2.19847 17.8727C0.977099 16.6513 0.407125 15.1449 0.407125 13.3943C0.407125 11.2365 1.3028 9.44517 3.13486 8.06095C4.80407 6.79886 6.75827 6.14746 9.03817 6.14746C10.3003 6.14746 11.5216 6.39174 12.6616 6.83957C13.9237 7.32812 14.9415 8.06095 15.6743 8.95662C16.6921 10.2187 17.2214 11.8472 17.3028 13.8014H11.0738C10.8295 12.2136 10.0967 11.3994 8.79389 11.3994C7.36896 11.3994 6.63613 12.0508 6.63613 13.3129C6.63613 13.7607 6.71756 14.1271 6.88041 14.3714C7.12468 14.7785 7.89822 15.3078 9.16031 15.9185L11.7659 17.0991C12.6616 17.5062 13.4351 17.9134 14.0458 18.2798C14.7786 18.7276 15.3893 19.2162 15.8779 19.7454C16.9771 20.9261 17.5471 22.3917 17.5471 24.1831C17.4656 26.7073 16.6514 28.6207 15.0229 29.9643Z" fill="url(#paint0_linear)"/>
<path d="M34.1577 30.1677C32.6513 31.3891 30.6157 31.9998 28.0508 31.9998C25.4452 31.9998 23.3282 31.3484 21.7404 30.0456C20.0304 28.6614 19.1348 26.7072 19.1348 24.183V23.3688H25.4045C25.4045 24.2644 25.608 25.038 26.0152 25.6487C26.463 26.3815 27.1144 26.7072 27.9694 26.7072C29.5572 26.7072 30.3714 25.9336 30.3714 24.3459C30.3714 23.613 30.0864 23.0431 29.5572 22.5952C29.3536 22.4324 29.0686 22.2288 28.7022 22.066L28.2136 21.8217L25.5266 20.7632C24.6309 20.3968 23.8574 20.0303 23.2467 19.6232C22.4732 19.1754 21.8625 18.6868 21.3332 18.1576C20.1119 16.9362 19.5419 15.4298 19.5419 13.6792C19.5419 11.5214 20.4376 9.73008 22.2696 8.34586C23.9388 7.08377 25.893 6.43237 28.1729 6.43237C29.435 6.43237 30.6564 6.67665 31.7963 7.12449C33.0584 7.61303 34.0762 8.34586 34.8091 9.24153C35.8269 10.5036 36.3561 12.1321 36.4376 14.0863H30.2086C29.9643 12.4985 29.2315 11.6843 27.9287 11.6843C26.5037 11.6843 25.7709 12.3357 25.7709 13.5978C25.7709 14.0456 25.8523 14.412 26.0152 14.6563C26.2594 15.0634 27.033 15.5927 28.2951 16.2034L30.9007 17.384C31.7963 17.7912 32.5699 18.1983 33.1806 18.5647C33.9134 19.0125 34.5241 19.5011 35.0126 20.0303C36.1119 21.211 36.6818 22.6766 36.6818 24.468C36.6411 26.9107 35.7862 28.8242 34.1577 30.1677Z" fill="url(#paint1_linear)"/>
<path d="M86.554 18.5649C86.0655 19.8677 85.3734 20.8856 84.5184 21.6184C83.5006 22.514 82.3199 23.1247 81.0171 23.4504C79.9993 23.6947 78.6965 23.8576 77.0273 23.8576H74.1774V31.8779H67.9077V6.26978H76.2945C77.1087 6.26978 77.8008 6.26978 78.3301 6.31049C79.1036 6.3512 79.7958 6.43263 80.4064 6.55476C81.9535 6.83975 83.2156 7.36901 84.152 8.14255C86.1469 9.85247 87.1647 12.0917 87.1647 14.9008C87.2054 16.1629 87.0019 17.3843 86.554 18.5649ZM79.5922 12.5395C78.9408 12.2138 77.9637 12.0509 76.6202 12.0509H74.2181V18.1578H76.8645C78.1265 18.1578 79.0629 17.9543 79.7143 17.5878C80.5286 17.0993 80.9357 16.285 80.9357 15.1044C80.9357 13.8423 80.4879 12.9873 79.5922 12.5395Z" fill="url(#paint2_linear)"/>
<path d="M89.0786 31.7557V6.18823H95.6333V31.7557H89.0786Z" fill="url(#paint3_linear)"/>
<path d="M46.6159 22.5139L40.1426 16.7327L40.1833 9.44519L46.6973 14.7378L46.6159 22.5139Z" fill="url(#paint4_linear)"/>
<path d="M46.6566 31.7964H40.1833L40.1426 16.7328L46.6159 22.514L46.6566 31.7964Z" fill="url(#paint5_linear)"/>
<path d="M64.2442 31.7964L56.061 31.8371L46.6157 22.514L51.1348 18.5242L64.2442 31.7964Z" fill="url(#paint6_linear)"/>
<path d="M69.3741 2.52405H61.0281L42.1782 18.524L46.6159 22.5139L69.3741 2.52405Z" fill="url(#paint7_linear)"/>
<defs>
<linearGradient id="paint0_linear" x1="0" y1="19.0236" x2="17.481" y2="19.0236" gradientUnits="userSpaceOnUse">
<stop offset="0.3069" stop-color="#303082"/>
<stop offset="0.9896" stop-color="#303082"/>
</linearGradient>
<linearGradient id="paint1_linear" x1="19.147" y1="19.2308" x2="36.628" y2="19.2308" gradientUnits="userSpaceOnUse">
<stop offset="0.3069" stop-color="#303082"/>
<stop offset="0.9896" stop-color="#303082"/>
</linearGradient>
<linearGradient id="paint2_linear" x1="67.9382" y1="19.0675" x2="87.2163" y2="19.0675" gradientUnits="userSpaceOnUse">
<stop offset="0.3069" stop-color="#303082"/>
<stop offset="0.9896" stop-color="#303082"/>
</linearGradient>
<linearGradient id="paint3_linear" x1="89.0675" y1="18.9706" x2="95.6062" y2="18.9706" gradientUnits="userSpaceOnUse">
<stop offset="0.3069" stop-color="#303082"/>
<stop offset="0.9896" stop-color="#303082"/>
</linearGradient>
<linearGradient id="paint4_linear" x1="43.4959" y1="21.4567" x2="43.3434" y2="8.03169" gradientUnits="userSpaceOnUse">
<stop stop-color="#5FECFD"/>
<stop offset="1" stop-color="#0154FF"/>
</linearGradient>
<linearGradient id="paint5_linear" x1="40.1532" y1="24.2698" x2="46.6541" y2="24.2698" gradientUnits="userSpaceOnUse">
<stop offset="0.3069" stop-color="#303082"/>
<stop offset="0.9896" stop-color="#303082"/>
</linearGradient>
<linearGradient id="paint6_linear" x1="53.1338" y1="29.3402" x2="57.6917" y2="24.9785" gradientUnits="userSpaceOnUse">
<stop offset="0.3069" stop-color="#303082"/>
<stop offset="0.9896" stop-color="#303082"/>
</linearGradient>
<linearGradient id="paint7_linear" x1="63.3684" y1="4.25795" x2="44.7558" y2="20.1972" gradientUnits="userSpaceOnUse">
<stop stop-color="#5FECFD"/>
<stop offset="1" stop-color="#0154FF"/>
</linearGradient>
</defs>
</svg>
